HIERARCHY
ROOT Hips
{
  OFFSET 58.6531 101.466 27.7425
  CHANNELS 6 Xposition Yposition Zposition Zrotation Xrotation Yrotation
  JOINT RightUpLeg
  {
    OFFSET -8.9458 -8.66707 0.101652
    CHANNELS 3 Zrotation Xrotation Yrotation
    JOINT RightLeg
    {
      OFFSET 0 -44.4227 1.3727
      CHANNELS 3 Zrotation Xrotation Yrotation
      JOINT RightFoot
      {
        OFFSET 0.253549 -42.0924 -1.46059
        CHANNELS 3 Zrotation Xrotation Yrotation
        JOINT RightToes
        {
          OFFSET 0.04 -4.41509 8.4991
          CHANNELS 3 Zrotation Xrotation Yrotation
          End Site
          {
            OFFSET -0.08 -0.137448 9.77979
          }
        }
      }
    }
  }
  JOINT Spine
  {
    OFFSET 0 11.8905 0
    CHANNELS 3 Zrotation Xrotation Yrotation
    JOINT Spine1
    {
      OFFSET 0 25.6574 0.127663
      CHANNELS 3 Zrotation Xrotation Yrotation
      JOINT HEad
      {
        OFFSET 0 8.73416 0.011341
        CHANNELS 3 Zrotation Xrotation Yrotation
        End Site
        {
          OFFSET -0.29 12.7742 2.51395
        }
      }
      JOINT LeftShoulder1
      {
        OFFSET 8.99 -0.362252 -0.22
        CHANNELS 3 Zrotation Xrotation Yrotation
        JOINT LeftArm
        {
          OFFSET 10.2827 -0.00338 0.322123
          CHANNELS 3 Zrotation Xrotation Yrotation
          JOINT LeftForeArm
          {
            OFFSET 32.7669 0.099144 -1.42434
            CHANNELS 3 Zrotation Xrotation Yrotation
            JOINT LeftHand
            {
              OFFSET 27.5643 0.085362 1.02216
              CHANNELS 3 Zrotation Xrotation Yrotation
              End Site
              {
                OFFSET 16.7443 -0.6 1.50291
              }
            }
          }
        }
      }
      JOINT RightShoulder
      {
        OFFSET -8.99 -0.362252 -0.22
        CHANNELS 3 Zrotation Xrotation Yrotation
        JOINT RightArm
        {
          OFFSET -10.2827 -0.00338 0.322123
          CHANNELS 3 Zrotation Xrotation Yrotation
          JOINT RightForeArm
          {
            OFFSET -32.8971 0.099144 -1.42434
            CHANNELS 3 Zrotation Xrotation Yrotation
            JOINT RightHand
            {
              OFFSET -27.4921 0.085362 1.02216
              CHANNELS 3 Zrotation Xrotation Yrotation
              End Site
              {
                OFFSET -16.6312 -0.6 1.50291
              }
            }
          }
        }
      }
    }
  }
  JOINT LeftUpLeg
  {
    OFFSET 8.9458 -8.66707 0.101652
    CHANNELS 3 Zrotation Xrotation Yrotation
    JOINT LeftLeg
    {
      OFFSET 0 -44.4227 1.3727
      CHANNELS 3 Zrotation Xrotation Yrotation
      JOINT LeftFoot
      {
        OFFSET -0.253549 -42.0924 -1.46059
        CHANNELS 3 Zrotation Xrotation Yrotation
        JOINT LeftToes
        {
          OFFSET -0.04 -4.41509 8.4991
          CHANNELS 3 Zrotation Xrotation Yrotation
          End Site
          {
            OFFSET 0.08 -0.047448 9.77979
          }
        }
      }
    }
  }
}
MOTION
Frames:	15
Frame Time:	0.0166667
61.6603 99.8506 31.8958 9.6102 -5.5535 34.2413 -28.7158 -15.7574 -9.90919 24.7412 36.0258 -41.3572 0.482448 -8.59023 1.34532 0.0462048 0.000533403 0.662642 9.30107 19.0549 -7.52021 -0.150525 -0.599766 -0.0199793 14.3362 17.2979 -19.9428 1.59028e-015 3.18055e-015 -3.18055e-015 -134.447 -9.00039 -58.9429 -58.8506 56.8631 -38.11 -18.5113 34.2985 -7.72956 19.289 14.2962 4.18181 179.599 -20.9345 171.707 134.353 50.0826 -24.8305 -15.4598 18.5706 13.9347 16.4719 -3.18413 -16.7921 -42.2741 19.7354 47.7248 32.371 -3.01805 3.68871 -1.34404e-009 1.55998e-007 -4.83406e-009 
60.5083 101.302 32.214 9.4676 -5.3493 36.1655 -26.4074 -14.2729 -1.61624 25.6867 29.3308 -46.9765 1.25257 -7.584 0.824359 0.0462048 0.000533403 0.662642 8.31178 18.9624 -3.7845 -0.0939481 -0.393175 -0.0287155 20.5483 19.8124 -24.1996 1.59028e-015 0 9.54166e-015 -131.089 -3.95561 -56.5003 -53.6649 55.9159 -42.638 -18.5589 33.8221 -7.54013 16.3246 15.2158 8.79339 -171.625 -17.742 -179.375 134.618 49.7337 -23.8728 -15.5205 18.5569 14.1499 18.0084 -0.689265 -16.3482 -40.3397 15.6996 44.2924 31.3458 -3.28562 3.48945 -1.34404e-009 1.55998e-007 -4.83406e-009 
59.3759 102.517 32.7254 9.29875 -5.33312 37.5366 -24.5096 -12.7868 5.90535 25.8548 23.1312 -52.1347 1.82607 -6.74625 0.406841 0.0462048 0.000533403 0.662642 7.53502 19.0028 -0.58643 -0.0476547 -0.22373 -0.0349135 26.0842 21.5777 -27.7123 -3.53113e-031 -3.18055e-015 -6.36111e-015 -128.983 -0.588702 -54.9322 -50.8193 55.4395 -45.1841 -18.4362 33.4597 -7.61802 13.8849 15.7546 12.5131 -165.044 -14.3511 -172.824 134.794 49.247 -23.138 -15.7668 19.5802 13.5521 19.606 1.69012 -15.8503 -38.9838 12.2172 41.4095 29.8133 -3.57823 3.22878 -1.34404e-009 1.55998e-007 -4.83405e-009 
58.2887 103.431 33.4633 9.12406 -5.48102 38.3802 -23.0463 -11.2546 12.6604 26.1273 17.9081 -59.0385 2.64975 -5.74973 0.14371 0.0462048 0.000533403 0.662642 6.87142 18.846 1.80296 -0.0122969 -0.0942389 -0.0349385 30.8122 23.2821 -30.3431 1.59028e-015 0 -0 -127.639 0.977461 -53.9028 -49.4289 55.4192 -46.5231 -18.4128 33.1593 -7.43973 11.9968 16.2651 14.9808 -160.367 -11.7097 -168.802 134.878 48.8092 -22.6093 -15.949 20.0474 13.727 21.2799 3.85073 -15.3344 -38.1463 9.32582 39.0989 27.8477 -3.94047 2.97658 -1.34405e-009 1.55998e-007 -4.83405e-009 
57.2407 104.067 34.3583 8.96525 -5.77689 38.7344 -21.9296 -9.78275 18.6345 26.6771 13.5395 -67.1446 3.70103 -4.75308 0.0261453 0.0462048 0.000533403 0.662642 6.65525 19.3621 2.25993 0.0357338 0.0486856 -0.113014 33.6337 24.9951 -30.6324 -1.59028e-015 0 3.18055e-015 -127.166 0.688049 -54.5948 -48.9609 55.821 -47.1803 -18.2784 32.8707 -7.4277 11.3285 15.7531 15.1987 -158.712 -11.6618 -168.454 134.865 48.5185 -22.2699 -16.2086 20.9899 13.4072 22.9715 5.7674 -14.8258 -37.6628 7.04674 37.3176 25.4915 -4.35635 2.73748 -1.34405e-009 1.55998e-007 -4.83405e-009 
56.2297 104.5 35.2884 8.84156 -6.21005 38.644 -21.0584 -8.09384 22.6596 26.7068 9.81292 -72.7451 4.65597 -4.29577 0.028459 0.0462048 0.000533403 0.662642 6.86522 20.4354 1.04323 0.0450773 0.0718999 -0.0986522 34.6813 26.9404 -29.143 -1.59028e-015 1.59028e-015 -6.36111e-015 -127.429 -1.02581 -56.4411 -49.0938 56.5843 -47.4784 -18.1969 32.5792 -7.22838 11.6596 14.6056 13.6426 -159.473 -13.7977 -170.822 134.769 48.4008 -22.0686 -16.3996 21.5316 13.5242 24.5572 7.45421 -14.3331 -37.3058 5.38981 36.0141 22.7657 -4.77833 2.50509 -1.34405e-009 1.55998e-007 -4.83405e-009 
55.2476 104.766 36.1948 8.74273 -6.73226 38.2638 -20.3749 -6.46675 25.0353 26.6436 6.9013 -76.3575 5.61993 -4.12701 0.119424 0.0462048 0.000533403 0.662642 7.06807 21.1414 -0.379988 0.01029 0.00380001 0.000319498 35.1907 29.1503 -27.6499 -8.82781e-032 -1.59028e-015 -3.18055e-015 -127.929 -3.44455 -57.9664 -49.6222 57.5858 -47.568 -18.064 32.3019 -7.07717 12.0974 13.9356 11.6669 -160.811 -16.2936 -173.983 134.604 48.4471 -21.9704 -16.6282 22.3 13.3255 26.0372 8.87236 -13.8766 -37.0235 4.32618 35.0804 19.7459 -5.18049 2.24883 -1.34404e-009 1.55998e-007 -4.83404e-009 
54.2298 104.9 36.9758 8.64259 -7.27535 37.7668 -19.8584 -5.17526 26.0022 26.7931 4.80616 -78.4187 6.56419 -4.08316 0.217482 0.0462048 0.000533403 0.662642 7.33683 21.826 -1.62912 0.00662108 0.000180037 0.00829968 33.6419 30.1963 -25.7497 -8.82781e-032 -1.59028e-015 -3.18055e-015 -128.726 -5.91985 -59.4705 -50.3858 58.7189 -47.5475 -17.9795 32.0523 -6.7751 12.6422 13.2877 9.68195 -162.695 -18.7811 -177.381 134.379 48.6119 -21.9022 -16.8057 22.8061 13.3727 27.2995 8.97139 -13.9475 -36.7441 4.41633 35.342 16.262 -5.31043 1.90317 -1.34405e-009 1.55998e-007 -4.83405e-009 
53.1654 104.933 37.6157 8.53144 -7.79458 37.2007 -19.4444 -4.20681 25.6736 27.1864 3.54102 -79.0845 7.56572 -4.13348 0.323917 0.0462048 0.000533403 0.662642 7.64896 22.4669 -2.72418 0.00662108 0.000180037 0.00829968 30.5158 30.007 -23.6386 1.59028e-015 -1.59028e-015 3.18055e-015 -129.738 -8.29456 -60.9133 -51.2581 59.8972 -47.4832 -17.901 31.8422 -6.48758 13.2187 12.7091 7.83177 -164.915 -21.0542 179.218 134.108 48.8467 -21.8277 -16.9949 23.4274 13.2221 28.3305 7.98681 -14.4501 -36.4593 5.6374 36.5307 12.3426 -5.14746 1.49391 -1.34405e-009 1.55998e-007 -4.83405e-009 
52.2539 104.783 38.1129 8.41594 -8.27727 36.5645 -19.4096 -3.59909 24.1983 28.2803 3.17884 -78.5175 8.77185 -4.43574 0.488132 0.0462048 0.000533403 0.662642 7.96575 23.0746 -3.64021 0.00662108 0.000180037 0.00829968 27.5152 29.5822 -21.6845 -0 0 6.36111e-015 -130.905 -10.4809 -62.3264 -52.1375 61.0611 -47.4226 -17.8788 31.6578 -6.11636 13.7997 12.187 6.16707 -167.347 -23.0274 175.918 133.827 49.1053 -21.7451 -17.146 23.8914 13.2124 26.9716 6.22576 -14.0194 -37.1605 8.09768 36.7034 23.2713 -3.7541 2.52868 -1.34405e-009 1.55998e-007 -4.83406e-009 
51.363 104.462 38.549 8.29802 -8.71493 35.8678 -19.6324 -3.29196 21.6847 29.9727 3.70157 -76.8705 10.094 -5.01971 0.727555 0.0462048 0.000533403 0.662642 8.26051 23.6485 -4.37038 0.00662108 0.000180037 0.00829968 24.697 28.9562 -19.9205 -8.82781e-032 1.59028e-015 3.18055e-015 -132.174 -12.4292 -63.7204 -52.9506 62.1768 -47.4012 -17.8809 31.4918 -5.77467 14.36 11.7157 4.70689 -169.87 -24.6514 172.793 133.576 49.354 -21.6789 -17.3136 24.4254 13.0884 25.2511 4.79242 -13.597 -36.8342 10.0202 36.6797 33.7409 -2.2652 3.247 -1.34405e-009 1.55998e-007 -4.83405e-009 
50.5234 104.573 39.0819 8.19162 -9.10589 35.1155 -19.0472 -2.53332 19.4182 29.8102 4.22585 -75.0341 11.7249 -4.73695 0.833215 0.0462048 0.000533403 0.662642 8.50419 24.1935 -4.9101 0.00662108 0.000180037 0.00829968 22.1005 28.1767 -18.3699 -1.59028e-015 0 3.18055e-015 -133.501 -14.1184 -65.0867 -53.6563 63.2301 -47.4409 -17.9195 31.3267 -5.40501 14.8792 11.298 3.44549 -172.377 -25.9111 169.896 133.391 49.5757 -21.6492 -17.4804 24.8659 13.0547 27.512 3.21038 -14.1934 -40.3691 13.5163 37.7543 22.7669 -2.88849 2.24909 -1.34405e-009 1.55998e-007 -4.83405e-009 
49.865 104.221 39.495 8.11069 -9.449 34.3238 -19.4652 -2.42081 17.3084 31.5452 5.3168 -73.3989 13.486 -5.27142 1.16639 0.0462048 0.000533403 0.662642 8.67979 24.7083 -5.27508 0.00662108 0.000180037 0.00829968 19.7456 27.2966 -17.0411 -0 -1.59028e-015 -0 -134.852 -15.5494 -66.4079 -54.2437 64.2192 -47.551 -17.9688 31.1602 -5.06708 15.3505 10.9378 2.36165 -174.798 -26.8216 167.257 133.288 49.7691 -21.6666 -17.6781 25.332 12.9519 26.0012 1.3138 -13.6794 -42.0253 16.7877 37.1808 32.3911 -0.66689 3.20072 -1.34404e-009 1.55998e-007 -4.83405e-009 
49.2519 104.236 39.9624 8.06533 -9.74298 33.497 -19.2253 -1.99901 15.434 31.6766 6.39684 -71.6378 15.5151 -5.11909 1.36042 0.0462048 0.000533403 0.662642 8.77452 25.1892 -5.47541 0.00662108 0.000180037 0.00829968 17.6344 26.3674 -15.9286 1.59028e-015 -3.18055e-015 -9.54166e-015 -136.195 -16.7369 -67.6659 -54.7179 65.1495 -47.7308 -18.0258 30.9922 -4.72302 15.7801 10.6365 1.43338 -177.089 -27.4186 164.891 133.269 49.9417 -21.7267 -17.8825 25.7154 12.8888 27.5968 -0.814142 -14.016 -46.1775 20.9228 38.0605 24.7208 -1.01988 2.64701 -1.34405e-009 1.55998e-007 -4.83405e-009 
48.6866 104.059 40.2975 8.0574 -9.98181 32.6476 -19.3911 -1.9211 13.7293 32.4189 7.77192 -70.0249 17.5958 -5.25836 1.66709 0.0462048 0.000533403 0.662642 8.78717 25.6249 -5.53457 0.00662108 0.000180037 0.00829968 15.7578 25.4321 -15.0145 8.82781e-032 1.59028e-015 -3.18055e-015 -137.507 -17.7013 -68.8501 -55.0849 66.0271 -47.9798 -18.0715 30.8371 -4.41241 16.175 10.3907 0.647758 -179.23 -27.7482 162.797 133.318 50.1078 -21.8193 -18.0982 26.0822 12.7616 27.2231 -2.89895 -13.8243 -48.2615 23.2647 38.7466 28.8633 0.0915481 3.17664 -1.34405e-009 1.55998e-007 -4.83405e-009 
